<svg xmlns="http://www.w3.org/2000/svg" viewBox="0 0 78.77 14.14">
  <g id="Group_6" data-name="Group 6" transform="translate(-610.92 -20.5)">
    <text id="Wishlist" transform="translate(629 31.633)" fill="#1d1714" font-size="12" font-family="Comfortaa-Bold, Comfortaa" font-weight="700"><tspan x="0" y="0">WISHLIST</tspan></text>
    <path id="Icon_ionic-ios-heart-empty" data-name="Icon ionic-ios-heart-empty" d="M13.3,3.938h-.033a3.866,3.866,0,0,0-3.1,1.484,3.866,3.866,0,0,0-3.1-1.484H7.03A3.477,3.477,0,0,0,3.375,7.163a6.415,6.415,0,0,0,1.56,3.788,26.255,26.255,0,0,0,5.228,4.4,26.255,26.255,0,0,0,5.228-4.4,6.415,6.415,0,0,0,1.56-3.788A3.477,3.477,0,0,0,13.3,3.938Zm1.358,6.542a23.843,23.843,0,0,1-4.491,3.87,23.875,23.875,0,0,1-4.491-3.873A5.687,5.687,0,0,1,4.289,7.163a2.271,2.271,0,0,1,.8-1.707A2.964,2.964,0,0,1,7.037,4.74h.029a3.047,3.047,0,0,1,1.341.308,2.736,2.736,0,0,1,.992.813.993.993,0,0,0,1.534,0,2.763,2.763,0,0,1,.992-.813,3.047,3.047,0,0,1,1.341-.308H13.3a2.971,2.971,0,0,1,1.945.716,2.264,2.264,0,0,1,.8,1.707A5.76,5.76,0,0,1,14.654,10.479Z" transform="translate(608.045 17.063)" stroke="#000" stroke-width="1"/>
  </g>
</svg>