<svg xmlns="http://www.w3.org/2000/svg" viewBox="0 0 373.05 74.79">
  <defs>
    <style>
      .cls-1 {
        fill: #ffc15d;
        stroke: #ffc15d;
        stroke-miterlimit: 10;
        stroke-width: 4px;
      }
    </style>
  </defs>
  <g id="logo">
    <g>
      <path class="cls-1" d="M9.81336,71.32738c-2.88965-.95752-5.23291-2.33203-7.02832-4.12598-.51416-.56689-.77539-1.11377-.78467-1.64258-.01416-.81543,.37598-1.54199,1.17188-2.18066,.59717-.44238,1.22266-.66943,1.87842-.68066,.85596-.01514,1.59326,.30859,2.20947,.96924,1.23291,1.32324,2.8501,2.32666,4.854,3.01172,2.00244,.68555,4.21387,1.00684,6.63281,.96484,3.52686-.06201,6.16211-.68408,7.90674-1.8667,1.74316-1.18262,2.62402-2.70996,2.64209-4.58252-.03027-1.72803-.9375-3.15234-2.72119-4.27344-1.78467-1.12061-4.59668-1.93604-8.43555-2.44482-4.95264-.68115-8.6665-1.94824-11.14355-3.80225-2.47803-1.85254-3.73877-4.12256-3.78613-6.81104-.06104-3.50244,1.31494-6.23926,4.12891-8.20947,2.81299-1.96826,6.36182-2.99121,10.64551-3.06592,3.32617-.05811,6.23242,.43115,8.72119,1.46777,2.4873,1.03711,4.50439,2.50244,6.0498,4.39502,.41357,.61768,.62549,1.16602,.63379,1.64551,.01416,.81641-.37842,1.47168-1.17578,1.96484-.34863,.24658-.8252,.37451-1.42969,.38477-1.05811,.01855-1.94678-.32617-2.66455-1.03369-2.5166-2.64404-5.9165-3.9292-10.19922-3.85449-2.77197,.04834-4.97949,.62695-6.62354,1.73584s-2.45166,2.47998-2.42334,4.11084c.03027,1.72803,.83496,3.09424,2.41553,4.09863,1.5791,1.00537,4.36572,1.78467,8.35791,2.33838,5.40674,.77002,9.28613,2.10645,11.63867,4.00977,2.35107,1.90332,3.55322,4.29443,3.60352,7.17383,.03857,2.20801-.62061,4.1875-1.97559,5.93945-1.35645,1.75195-3.26074,3.12988-5.7124,4.13232-2.45264,1.00391-5.24121,1.53174-8.36523,1.58643-3.125,.05469-6.13135-.39697-9.02148-1.35498Z"/>
      <path class="cls-1" d="M88.19617,33.40209c.56299,.49463,.85205,1.1499,.86621,1.96533l.59033,33.83496c.01416,.81641-.25146,1.49316-.7959,2.03027-.5459,.53809-1.24658,.81396-2.10303,.82861-.85742,.01514-1.5542-.23584-2.09229-.75537-.53857-.51855-.81494-1.18555-.8291-2.00195l-.04248-2.44775c-1.63184,1.80518-3.62402,3.23193-5.97412,4.28125-2.35205,1.04883-4.91309,1.59766-7.68359,1.646-3.5791,.0625-6.80371-.60107-9.67529-1.99121-2.87305-1.39014-5.13916-3.4502-6.7998-6.18213-1.66162-2.73145-2.52441-6.01611-2.59131-9.85645l-.32666-18.71729c-.01367-.76709,.25146-1.41992,.79736-1.95801,.54443-.53711,1.22021-.81348,2.02686-.82764,.85645-.01514,1.56592,.2373,2.13037,.75488,.56348,.51904,.85205,1.16211,.86572,1.9292l.32666,18.71729c.07422,4.27197,1.37842,7.50098,3.91162,9.68896,2.53369,2.18848,5.81494,3.24707,9.84717,3.17676,2.46826-.04297,4.69043-.5376,6.66602-1.48438,1.97412-.9458,3.52637-2.2334,4.6582-3.86182,1.13037-1.62793,1.6792-3.42529,1.64502-5.39355l-.37207-21.30908c-.01416-.81543,.23877-1.48047,.75879-1.99365,.52051-.51318,1.2085-.77686,2.06592-.79199,.85596-.01514,1.56543,.22461,2.12939,.71875Z"/>
      <path class="cls-1" d="M138.86658,34.5056c2.87158,1.39014,5.1377,3.45117,6.79932,6.18213,1.66064,2.73242,2.5249,6.01709,2.5918,9.85645l.32666,18.7168c.01318,.76855-.25293,1.42139-.79736,1.9585-.5459,.53809-1.22168,.81348-2.02734,.82764-.85742,.01465-1.56689-.23633-2.13037-.75537-.56396-.51758-.85205-1.16064-.86523-1.9292l-.32666-18.7168c-.07471-4.271-1.37842-7.50146-3.91211-9.68945-2.5332-2.18799-5.81592-3.24707-9.84717-3.17676-2.46924,.04346-4.69141,.53906-6.66553,1.48486-1.97559,.94678-3.52783,2.23438-4.65821,3.86182-1.13182,1.62891-1.67919,3.42627-1.64501,5.39355l.37207,21.30859c.01416,.81689-.23877,1.48047-.75928,1.99365s-1.20898,.77734-2.06543,.79199c-.85742,.01514-1.56689-.22461-2.12988-.71875-.56396-.49414-.85156-1.14844-.86572-1.96533l-.59082-33.83447c-.01416-.81592,.25049-1.49219,.79639-2.03027,.54492-.5376,1.24512-.81396,2.10254-.8291,.85645-.01465,1.5542,.2373,2.09277,.75586,.53809,.51953,.81445,1.18604,.82861,2.00146l.04297,2.44775c1.63184-1.80371,3.62256-3.23145,5.97412-4.28076,2.35059-1.04932,4.91162-1.59814,7.68359-1.64648,3.57764-.0625,6.80225,.60156,9.67529,1.9917Z"/>
      <path class="cls-1" d="M178.3407,24.25707c-1.65234,2.14209-2.44531,4.96436-2.38477,8.46729l.0293,1.65576,9.07031-.15869c.80469-.01416,1.45117,.20312,1.93945,.65039,.48633,.44824,.73633,1.03125,.74902,1.75098,.01172,.67285-.21777,1.24072-.68848,1.70459-.47168,.46484-1.11035,.70312-1.91602,.71729l-9.07031,.15869,.5293,30.30713c.01465,.86377-.23828,1.55225-.75781,2.06543-.52148,.51318-1.26074,.77832-2.2168,.79492-.80664,.01416-1.47852-.22607-2.0166-.7207-.53809-.49512-.81445-1.17432-.8291-2.03809l-.5293-30.30713-4.83789,.08447c-.80665,.01367-1.45312-.20215-1.93945-.65039-.4873-.44727-.73584-1.00684-.74756-1.6792-.0127-.72021,.21582-1.31152,.6875-1.77637,.47021-.46387,1.10889-.70361,1.91553-.71777l4.83789-.08398-.02441-1.36816c-.08887-5.13477,1.22363-9.26221,3.94238-12.38232,2.7168-3.11914,6.59668-4.72412,11.63672-4.81201,.85547-.01514,1.56445,.21338,2.12891,.68311,.5625,.4707,.84961,1.06494,.8623,1.78516,.0127,.71973-.25488,1.3252-.7998,1.81396-.54688,.49023-1.24805,.74219-2.10352,.75684-3.32617,.05811-5.81543,1.1582-7.4668,3.29883Z"/>
      <path class="cls-1" d="M204.48914,68.8889c-1.98242-2.29346-3.00391-5.26367-3.06738-8.91162l-.71582-41.03369c-.01465-.81543,.25-1.48096,.79688-1.99414,.54492-.51367,1.2207-.77783,2.02734-.7915,.85645-.01514,1.55469,.22461,2.0918,.71924,.53809,.49463,.81445,1.15039,.82812,1.96582l.7168,41.03369c.03516,2.06445,.50586,3.73584,1.41016,5.0166,.9043,1.28027,2.03711,1.90869,3.39844,1.88477l1.88867-.0332c.75586-.01318,1.36522,.22852,1.82812,.72461,.46191,.49561,.7002,1.15234,.71484,1.96777,.01367,.81641-.29004,1.48096-.91016,1.99609-.62305,.51514-1.43652,.78125-2.44336,.79883l-.9834,.01709c-3.07422,.05371-5.60156-1.06543-7.58105-3.36035Z"/>
      <path class="cls-1" d="M312.66004,33.08959c1.24316,.50684,1.87402,1.23975,1.89062,2.19922,.00488,.28809-.01758,.50439-.06445,.64941-.19043,.67578-.49805,1.13721-.9209,1.38428-.4248,.24805-1.01465,.37744-1.77051,.39062-.45312,.00781-1.23633-.02539-2.3457-.10303-.4043-.04004-1.00977-.0542-1.81543-.04004-3.77931,.06592-6.84961,1.08008-9.20898,3.04102-2.36035,1.96191-3.51367,4.47852-3.45996,7.54932l.37598,21.5249c.01465,.86377-.22559,1.54102-.7207,2.02881-.49609,.48926-1.19727,.74121-2.10352,.75684-.90723,.01611-1.61816-.21143-2.12988-.68311-.5127-.47021-.77539-1.13818-.79102-2.00244l-.5918-33.90674c-.01465-.86377,.22461-1.53955,.7207-2.02881,.49512-.48779,1.19727-.74121,2.10449-.75684s1.61621,.2124,2.12891,.68311c.51172,.47119,.77539,1.13867,.79102,2.00244l.05566,3.16748c1.42578-2.0415,3.2627-3.63281,5.51172-4.77686,2.24805-1.14307,4.68164-1.73828,7.30273-1.78369,2.11621-.03711,3.7959,.19775,5.04102,.7041Z"/>
      <path class="cls-1" d="M360.13465,35.04027c3.22949,1.69629,5.79102,4.06396,7.68457,7.10254,1.89258,3.04004,2.87207,6.43115,2.9375,10.17432l.2959,16.91748c.0127,.76855-.25293,1.42139-.79785,1.9585-.5459,.53809-1.24609,.81396-2.10254,.82861-.85742,.01514-1.56738-.22461-2.12988-.71875-.56445-.49414-.85156-1.14844-.86621-1.96533l-.0752-4.31934c-1.72461,2.33447-3.93457,4.18555-6.63281,5.55273-2.69824,1.36816-5.68555,2.07959-8.95996,2.13672-3.83008,.06689-7.30957-.74805-10.43945-2.44629-3.12988-1.69727-5.61621-4.05371-7.45801-7.0708-1.84277-3.01611-2.7959-6.39648-2.86134-10.13965-.06541-3.74365,.79396-7.1665,2.58107-10.27051,1.78516-3.10303,4.2627-5.55859,7.43262-7.36719,3.16895-1.80713,6.71875-2.74561,10.64941-2.81396,3.93066-.06885,7.51074,.74512,10.74219,2.44092Zm-2.37793,30.53809c2.29395-1.33643,4.08984-3.15576,5.38574-5.45898,1.29492-2.30225,1.91895-4.86963,1.87012-7.70166-.0498-2.83154-.7627-5.375-2.1377-7.63184-1.375-2.25586-3.2334-4.02344-5.57422-5.30371-2.3418-1.27881-4.94727-1.89404-7.82031-1.84375-2.87207,.05029-5.46875,.75586-7.78906,2.11621-2.31934,1.36133-4.12793,3.19336-5.42285,5.49561-1.2959,2.30322-1.91895,4.87061-1.87012,7.70166,.0498,2.83252,.76172,5.37646,2.1377,7.63184,1.37402,2.25684,3.24512,4.01221,5.61133,5.26709s4.98535,1.85693,7.85742,1.80713c2.87207-.05029,5.45605-.74365,7.75195-2.07959Z"/>
    </g>
  </g>
  <g id="plant_copy" data-name="plant copy">
    <path d="M268.25413,74.61009c-.03893,0-.07786-.00025-.11651-.0005l-30.64598-.27785c-5.9465-.05418-10.79204-4.1419-10.8015-9.11214l-.05565-24.94486c-.00164-.73165,.31842-1.42628,.90139-1.95588,.61642-.55992,1.48382-.88102,2.38-.88102h46.06067c1.69559,0,3.07482,1.19391,3.07482,2.6612v25.4859c0,2.29189-1.0275,4.47617-2.89306,6.15047-2.03937,1.83038-4.91434,2.87468-7.90418,2.87468Zm-38.53166-34.31471l.05565,24.91901c.00658,3.44504,3.4807,6.27921,7.74449,6.31798l30.6457,.27785c.02879,.00025,.05784,.0005,.08636,.0005,2.18193,0,4.26626-.75005,5.73103-2.06449,1.27533-1.1447,1.97769-2.62243,1.97769-4.16129v-25.34772h-46.04751c-.10733,0-.17024,.03802-.19341,.05815Zm46.30206-.0497h0Z"/>
    <path d="M278.14834,39.98274h-51.1735c-2.06295,0-3.74127-1.5406-3.74127-3.43411v-3.3516c0-1.8935,1.67832-3.43386,3.74127-3.43386h51.1735c2.06295,0,3.74127,1.54035,3.74127,3.43386v3.3516c0,1.8935-1.67832,3.43411-3.74127,3.43411Zm-46.98002-2.79938h46.98002c.36023,0,.65329-.28481,.65329-.63473v-3.3516c0-.34992-.29306-.63448-.65329-.63448h-51.1735c-.36023,0-.65329,.28456-.65329,.63448v3.3516c0,.34992,.29306,.63473,.65329,.63473h4.19348Z"/>
    <path d="M263.34033,31.45761c-.09513,0-.19135-.01094-.28758-.03405-.59956-.1434-.95732-.70059-.79886-1.24411,.02385-.08201,.071-.33178-.00576-.87903-.07841-.55769,.35694-1.06716,.97212-1.13824,.61491-.07331,1.17746,.32358,1.25559,.88127,.09458,.67275,.07786,1.21429-.05072,1.65592-.13296,.45629-.5875,.75825-1.0848,.75825Z"/>
    <path d="M240.88241,31.45761c-.40724,0-.8001-.2013-.99926-.55222-1.97029-3.4689,5.00385-13.60247,5.30171-14.03217,3.01479-4.34942,5.42659-6.55383,7.17016-6.55383,.01645,0,.0329,.00025,.04962,.0005,.73992,.01839,1.97769,.35812,4.17689,3.08816,1.27615,1.58409,2.70719,3.76514,4.02967,6.14128,.27935,.50202,.05702,1.11413-.49675,1.36738-.5535,.25275-1.229,.05144-1.50835-.45033-2.93885-5.28014-5.45551-7.94308-6.25848-8.1086-.12474,.02833-1.01297,.3027-3.00135,2.63535-1.41994,1.66561-3.00026,3.93463-4.3359,6.22478-3.01191,5.16483-3.52237,8.06585-3.13061,8.7555,.28388,.49978,.06717,1.11364-.48428,1.37111-.16435,.07655-.34008,.11308-.51306,.11308Z"/>
    <path d="M270.63755,31.71186c-.22343,0-.44933-.06039-.64589-.1859-.5069-.32408-.62807-.95905-.27086-1.41858,1.05711-1.35943,2.12929-4.61286,2.73132-8.28853,.62067-3.78974,.43343-6.2305,.09787-6.81975-1.38389-.17223-7.77012,2.32345-11.55581,5.24982,1.91546,3.55265,3.20559,6.80285,3.48193,8.79601,.07731,.55794-.35886,1.06691-.97404,1.137-.61628,.06959-1.17691-.32532-1.25422-.88301-.26016-1.87661-1.65584-5.26101-3.64203-8.83279l-.37668-.67773,.60888-.52091c1.8206-1.55775,4.8576-3.3501,7.92584-4.67772,5.43358-2.35079,6.68889-1.53787,7.10148-1.27095,1.62541,1.04778,1.36963,5.15663,.8685,8.41875-.50498,3.28748-1.60513,7.52084-3.17735,9.54283-.21877,.28133-.56611,.43144-.91894,.43144Zm2.00648-16.6946h0Zm-.14228-.08897h0Z"/>
    <path d="M234.01039,30.86538c-.35104,0-.69674-.14862-.91579-.42771-2.25513-2.87219-3.79884-11.19303-3.14405-14.66541,.17586-.93271,.50621-1.52569,1.03956-1.86617,.38764-.24877,1.57456-1.0095,6.62515,1.15514,2.83577,1.21528,5.64398,2.85728,7.32848,4.28505,.45303,.38397,.47701,1.02814,.05346,1.43871-.42356,.41081-1.13442,.43218-1.58703,.04846-3.36597-2.85256-9.65721-5.33929-11.10662-5.23292-.28868,.59472-.43301,2.8118,.12953,6.18079,.55419,3.31978,1.53207,6.25411,2.49117,7.47585,.35968,.45803,.24152,1.09351-.26373,1.41957-.19752,.12749-.42493,.18863-.65014,.18863Zm-1.82828-15.2467c-.00014,0,0,0,0,0h0Zm.17765-.11109"/>
    <path d="M271.4334,31.9825c-.85588,0-1.74933-.04921-2.68033-.14787-.61601-.06511-1.05711-.57061-.98501-1.12904,.07183-.55868,.63191-.95905,1.24545-.89295,4.21253,.44511,7.47542-.22392,9.69765-1.99167,2.75736-2.19322,3.33691-5.62659,3.44081-7.43385l-7.55931,2.22553c-.58941,.17347-1.22297-.11929-1.41487-.65387-.19135-.53458,.13132-1.10891,.72128-1.28263l8.10349-2.38558c.56502-.16601,1.18842-.07481,1.66681,.2448,.47647,.31861,.75582,.82908,.74732,1.36514-.02879,1.85399-.49812,6.48673-4.22432,9.45087-2.19975,1.74986-5.1386,2.63112-8.75897,2.63112Z"/>
    <path d="M231.95237,31.85724c-2.47348,0-4.5622-.6479-6.22915-1.93575-3.69124-2.85231-4.1492-8.0482-4.17484-10.14997-.00713-.59149,.28977-1.12929,.79434-1.43846,.4459-.27313,1.00584-.32507,1.49862-.13992l7.91666,2.9045c.57488,.211,.85232,.80447,.61971,1.32563-.23275,.52091-.88727,.77291-1.46216,.56166l-7.10148-2.60553c.10472,2.0794,.67906,5.91636,3.36597,7.99253,1.61719,1.24958,3.83997,1.69369,6.60679,1.31941,.61409-.0835,1.185,.30071,1.27629,.85666,.09156,.55595-.33144,1.07387-.94484,1.15688-.75157,.10165-1.47381,.15235-2.16589,.15235Zm-8.96307-11.78029c.00315,.00124,.00644,.00249,.00973,.00348l-.00973-.00348Z"/>
    <path d="M265.06526,17.56487c-.17381,0-.35008-.03678-.51512-.11407-.55076-.25822-.76624-.87257-.4814-1.37185,1.22022-2.1383,.46523-7.73283-.36297-8.74954-1.40006,.29574-6.30673,3.43783-8.44699,5.84877-.38874,.43765-1.09549,.50749-1.57881,.15483-.48305-.35241-.55953-.99335-.17079-1.43125,1.15361-1.29978,3.22314-2.98602,5.40041-4.40111,3.82242-2.484,4.95985-2.26579,5.33297-2.19397,.66206,.126,1.20981,.59372,1.62651,1.38925,1.21721,2.32494,1.5418,7.95749,.19437,10.31847-.19958,.34992-.59188,.55048-.99817,.55048Z"/>
    <path d="M239.67987,17.71572c-.54445,0-1.02243-.35961-1.10837-.86263-.28689-1.68077-.26688-4.25473,.0525-6.71711,.5594-4.31537,1.51342-4.94066,1.82691-5.14619,.55405-.36458,1.31426-.41876,2.25691-.15881,2.76189,.75999,7.65334,4.39341,8.68605,6.92985,.21466,.52737-.08279,1.11264-.6648,1.30749-.57955,.19385-1.22708-.07481-1.44228-.60267-.94663-2.32519-6.14019-5.65293-7.54094-5.76153-.66247,1.08083-1.52302,6.50959-.95485,9.83783,.09485,.55545-.32514,1.07561-.93799,1.1616-.05812,.0082-.1161,.01218-.17312,.01218Zm2.14958-11.12568"/>
    <path d="M257.93965,9.98762c-.53897,0-1.01489-.35315-1.10618-.85095-.50909-2.77253-3.14117-6.50909-4.17031-7.05386-.8441,.59298-2.98052,3.52084-4.37153,6.5332-.2396,.51867-.89797,.76347-1.46942,.54576-.57214-.21696-.84177-.81342-.6023-1.33209,.71072-1.53886,3.81721-7.37247,6.03067-7.79496,.54199-.10463,1.11495,.02759,1.70327,.39093,1.94973,1.20484,4.56865,5.51052,5.09473,8.37675,.10198,.55446-.31143,1.07884-.92332,1.17105-.06223,.00944-.12446,.01417-.1856,.01417Zm-5.14216-7.98433"/>
    <path d="M240.8417,69.40302c-2.90773,0-5.01249-.27338-6.32483-1.24287-1.42268-1.05101-2.05719-2.77005-2.05719-5.5739v-7.71593c0-.70283,.62848-1.27244,1.40363-1.27244s1.40363,.56962,1.40363,1.27244v7.71593c0,2.8451,.77021,3.41422,1.02325,3.60111,.9458,.6986,3.8279,.71128,6.23258,.64442,.77734-.00895,1.42227,.5306,1.44598,1.23293,.02385,.70233-.58503,1.28934-1.3599,1.31096-.61875,.01715-1.20789,.02734-1.76715,.02734Z"/>
  </g>
</svg>